<svg width="129" height="23" viewBox="0 0 129 23" fill="none" xmlns="http://www.w3.org/2000/svg">
<path d="M5.48881 22H0.875178L7.90501 1.63636H13.4533L20.4732 22H15.8596L10.7587 6.28977H10.5996L5.48881 22ZM5.20046 13.9957H16.0982V17.3565H5.20046V13.9957ZM27.0804 13.1705V22H22.8446V6.72727H26.8816V9.42188H27.0605C27.3986 8.53362 27.9654 7.83097 28.7608 7.31392C29.5563 6.79025 30.5208 6.52841 31.6543 6.52841C32.7149 6.52841 33.6396 6.76042 34.4284 7.22443C35.2173 7.68845 35.8304 8.35133 36.2679 9.21307C36.7054 10.0682 36.9242 11.089 36.9242 12.2756V22H32.6884V13.0312C32.695 12.0966 32.4564 11.3674 31.9725 10.8438C31.4886 10.3134 30.8224 10.0483 29.9739 10.0483C29.4038 10.0483 28.9 10.1709 28.4625 10.4162C28.0317 10.6615 27.6936 11.0194 27.4483 11.4901C27.2097 11.9541 27.0871 12.5142 27.0804 13.1705ZM40.2626 22V6.72727H44.4984V22H40.2626ZM42.3904 4.75852C41.7607 4.75852 41.2205 4.54972 40.7697 4.1321C40.3256 3.70786 40.1035 3.20076 40.1035 2.61079C40.1035 2.02746 40.3256 1.52699 40.7697 1.10938C41.2205 0.685132 41.7607 0.47301 42.3904 0.47301C43.0202 0.47301 43.5571 0.685132 44.0012 1.10938C44.452 1.52699 44.6774 2.02746 44.6774 2.61079C44.6774 3.20076 44.452 3.70786 44.0012 4.1321C43.5571 4.54972 43.0202 4.75852 42.3904 4.75852ZM47.8915 22V6.72727H51.9284V9.42188H52.1074C52.4256 8.52699 52.9559 7.82102 53.6983 7.30398C54.4408 6.78693 55.329 6.52841 56.3631 6.52841C57.4105 6.52841 58.302 6.79025 59.0378 7.31392C59.7736 7.83097 60.2641 8.53362 60.5094 9.42188H60.6685C60.9801 8.54688 61.5435 7.84754 62.3588 7.32386C63.1808 6.79356 64.1519 6.52841 65.2722 6.52841C66.6974 6.52841 67.8541 6.98248 68.7424 7.89062C69.6373 8.79214 70.0847 10.0715 70.0847 11.7287V22H65.8588V12.5639C65.8588 11.7154 65.6335 11.0791 65.1827 10.6548C64.7319 10.2306 64.1685 10.0185 63.4924 10.0185C62.7234 10.0185 62.1235 10.2637 61.6926 10.7543C61.2618 11.2382 61.0463 11.8778 61.0463 12.6733V22H56.9398V12.4744C56.9398 11.7254 56.7244 11.1288 56.2935 10.6847C55.8693 10.2405 55.3091 10.0185 54.6131 10.0185C54.1425 10.0185 53.7182 10.1378 53.3404 10.3764C52.9692 10.6084 52.6742 10.9366 52.4554 11.3608C52.2367 11.7784 52.1273 12.2689 52.1273 12.8324V22H47.8915ZM80.3908 22.2983C78.8198 22.2983 77.4675 21.9801 76.334 21.3438C75.2071 20.7008 74.3387 19.7926 73.7289 18.6193C73.119 17.4394 72.8141 16.044 72.8141 14.4332C72.8141 12.8622 73.119 11.4834 73.7289 10.2969C74.3387 9.11032 75.1971 8.18561 76.3042 7.52273C77.4178 6.85985 78.7237 6.52841 80.2218 6.52841C81.2293 6.52841 82.1673 6.69081 83.0357 7.01562C83.9107 7.33381 84.673 7.81439 85.3226 8.45739C85.9789 9.10038 86.4893 9.90909 86.8539 10.8835C87.2185 11.8513 87.4007 12.9848 87.4007 14.2841V15.4474H74.5044V12.8224H83.4135C83.4135 12.2126 83.281 11.6723 83.0158 11.2017C82.7507 10.7311 82.3828 10.3632 81.9121 10.098C81.4481 9.82623 80.9078 9.69034 80.2914 9.69034C79.6484 9.69034 79.0783 9.83949 78.5811 10.1378C78.0906 10.4295 77.7061 10.8239 77.4277 11.321C77.1493 11.8116 77.0068 12.3584 77.0002 12.9616V15.4574C77.0002 16.2131 77.1394 16.866 77.4178 17.4162C77.7028 17.9664 78.1039 18.3906 78.6209 18.6889C79.138 18.9872 79.7511 19.1364 80.4604 19.1364C80.931 19.1364 81.3619 19.0701 81.753 18.9375C82.1441 18.8049 82.4789 18.6061 82.7573 18.3409C83.0357 18.0758 83.2478 17.7509 83.3936 17.3665L87.3113 17.625C87.1124 18.5663 86.7047 19.3883 86.0882 20.0909C85.4784 20.7869 84.6896 21.3305 83.7218 21.7216C82.7606 22.1061 81.6503 22.2983 80.3908 22.2983Z" fill="white"/>
<path d="M90.2445 22V1.63636H94.5499V18.4503H103.28V22H90.2445ZM106.052 22V6.72727H110.287V22H106.052ZM108.18 4.75852C107.55 4.75852 107.01 4.54972 106.559 4.1321C106.115 3.70786 105.893 3.20076 105.893 2.61079C105.893 2.02746 106.115 1.52699 106.559 1.10938C107.01 0.685132 107.55 0.47301 108.18 0.47301C108.809 0.47301 109.346 0.685132 109.79 1.10938C110.241 1.52699 110.466 2.02746 110.466 2.61079C110.466 3.20076 110.241 3.70786 109.79 4.1321C109.346 4.54972 108.809 4.75852 108.18 4.75852ZM113.76 22V1.63636H117.996V9.29261H118.125C118.311 8.88163 118.579 8.46401 118.931 8.03977C119.289 7.6089 119.753 7.25095 120.323 6.96591C120.899 6.67424 121.615 6.52841 122.47 6.52841C123.584 6.52841 124.611 6.82008 125.553 7.40341C126.494 7.98011 127.246 8.8518 127.81 10.0185C128.373 11.1785 128.655 12.6335 128.655 14.3835C128.655 16.0871 128.38 17.5256 127.83 18.6989C127.286 19.8655 126.544 20.7505 125.602 21.3537C124.668 21.9503 123.62 22.2486 122.46 22.2486C121.638 22.2486 120.939 22.1127 120.362 21.8409C119.792 21.5691 119.325 21.2277 118.96 20.8168C118.596 20.3991 118.317 19.9782 118.125 19.554H117.936V22H113.76ZM117.906 14.3636C117.906 15.2718 118.032 16.0639 118.284 16.7401C118.536 17.4162 118.901 17.9432 119.378 18.321C119.855 18.6922 120.435 18.8778 121.118 18.8778C121.807 18.8778 122.391 18.6889 122.868 18.3111C123.345 17.9266 123.707 17.3963 123.952 16.7202C124.204 16.0374 124.33 15.2519 124.33 14.3636C124.33 13.482 124.207 12.7064 123.962 12.0369C123.717 11.3674 123.355 10.8437 122.878 10.4659C122.401 10.0881 121.814 9.89915 121.118 9.89915C120.429 9.89915 119.845 10.0814 119.368 10.446C118.897 10.8106 118.536 11.3277 118.284 11.9972C118.032 12.6667 117.906 13.4555 117.906 14.3636Z" fill="#C45231"/>
</svg>
