<svg width="1024" height="662" viewBox="0 0 1024 662" fill="none" xmlns="http://www.w3.org/2000/svg">
<rect width="1024" height="662" fill="#1E1E1E"/>
<rect width="1024" height="662" fill="#141517"/>
<path d="M374.591 355H362.5L378.205 308.455H393.182L408.886 355H396.795L385.864 320.182H385.5L374.591 355ZM372.977 336.682H398.25V345.227H372.977V336.682ZM425.011 335.091V355H413.898V320.091H424.466V326.5H424.852C425.625 324.364 426.943 322.689 428.807 321.477C430.67 320.25 432.89 319.636 435.466 319.636C437.92 319.636 440.049 320.189 441.852 321.295C443.67 322.386 445.08 323.917 446.08 325.886C447.095 327.841 447.595 330.129 447.58 332.75V355H436.466V334.932C436.481 332.992 435.989 331.477 434.989 330.386C434.004 329.295 432.633 328.75 430.875 328.75C429.708 328.75 428.678 329.008 427.784 329.523C426.905 330.023 426.223 330.742 425.739 331.682C425.269 332.621 425.027 333.758 425.011 335.091ZM454.46 355V320.091H465.574V355H454.46ZM460.028 316.023C458.468 316.023 457.127 315.508 456.006 314.477C454.884 313.432 454.324 312.174 454.324 310.705C454.324 309.25 454.884 308.008 456.006 306.977C457.127 305.932 458.468 305.409 460.028 305.409C461.604 305.409 462.945 305.932 464.051 306.977C465.172 308.008 465.733 309.25 465.733 310.705C465.733 312.174 465.172 313.432 464.051 314.477C462.945 315.508 461.604 316.023 460.028 316.023ZM472.648 355V320.091H483.216V326.5H483.602C484.33 324.379 485.557 322.705 487.284 321.477C489.011 320.25 491.072 319.636 493.466 319.636C495.89 319.636 497.966 320.258 499.693 321.5C501.42 322.742 502.519 324.409 502.989 326.5H503.352C504.004 324.424 505.277 322.765 507.17 321.523C509.064 320.265 511.299 319.636 513.875 319.636C517.178 319.636 519.86 320.697 521.92 322.818C523.981 324.924 525.011 327.818 525.011 331.5V355H513.898V334.045C513.898 332.303 513.451 330.977 512.557 330.068C511.663 329.144 510.504 328.682 509.08 328.682C507.549 328.682 506.345 329.182 505.466 330.182C504.602 331.167 504.17 332.492 504.17 334.159V355H493.489V333.932C493.489 332.311 493.049 331.03 492.17 330.091C491.292 329.152 490.133 328.682 488.693 328.682C487.723 328.682 486.867 328.917 486.125 329.386C485.383 329.841 484.799 330.492 484.375 331.341C483.966 332.189 483.761 333.189 483.761 334.341V355H472.648ZM548.216 355.659C544.564 355.659 541.413 354.939 538.761 353.5C536.125 352.045 534.095 349.977 532.67 347.295C531.261 344.598 530.557 341.394 530.557 337.682C530.557 334.076 531.269 330.924 532.693 328.227C534.117 325.515 536.125 323.409 538.716 321.909C541.307 320.394 544.36 319.636 547.875 319.636C550.36 319.636 552.633 320.023 554.693 320.795C556.754 321.568 558.534 322.712 560.034 324.227C561.534 325.742 562.701 327.614 563.534 329.841C564.367 332.053 564.784 334.591 564.784 337.455V340.227H534.443V333.773H554.443C554.428 332.591 554.148 331.538 553.602 330.614C553.057 329.689 552.307 328.97 551.352 328.455C550.413 327.924 549.33 327.659 548.102 327.659C546.86 327.659 545.746 327.939 544.761 328.5C543.777 329.045 542.996 329.795 542.42 330.75C541.845 331.689 541.542 332.758 541.511 333.955V340.523C541.511 341.947 541.792 343.197 542.352 344.273C542.913 345.333 543.708 346.159 544.739 346.75C545.769 347.341 546.996 347.636 548.42 347.636C549.405 347.636 550.299 347.5 551.102 347.227C551.905 346.955 552.595 346.553 553.17 346.023C553.746 345.492 554.178 344.841 554.466 344.068L564.67 344.364C564.246 346.652 563.314 348.644 561.875 350.341C560.451 352.023 558.58 353.333 556.261 354.273C553.943 355.197 551.261 355.659 548.216 355.659Z" fill="white"/>
<path d="M570.46 355V308.455H581.71V345.864H601.074V355H570.46ZM606.898 355V320.091H618.011V355H606.898ZM612.466 316.023C610.905 316.023 609.564 315.508 608.443 314.477C607.322 313.432 606.761 312.174 606.761 310.705C606.761 309.25 607.322 308.008 608.443 306.977C609.564 305.932 610.905 305.409 612.466 305.409C614.042 305.409 615.383 305.932 616.489 306.977C617.61 308.008 618.17 309.25 618.17 310.705C618.17 312.174 617.61 313.432 616.489 314.477C615.383 315.508 614.042 316.023 612.466 316.023ZM625.085 355V308.455H636.199V326.068H636.426C636.881 325.008 637.525 323.985 638.358 323C639.206 322.015 640.282 321.212 641.585 320.591C642.903 319.955 644.479 319.636 646.312 319.636C648.737 319.636 651.002 320.273 653.108 321.545C655.229 322.818 656.941 324.78 658.244 327.432C659.547 330.083 660.199 333.462 660.199 337.568C660.199 341.523 659.57 344.833 658.312 347.5C657.07 350.167 655.388 352.167 653.267 353.5C651.161 354.833 648.82 355.5 646.244 355.5C644.487 355.5 642.964 355.212 641.676 354.636C640.388 354.061 639.305 353.303 638.426 352.364C637.562 351.424 636.896 350.417 636.426 349.341H636.085V355H625.085ZM635.972 337.545C635.972 339.424 636.222 341.061 636.722 342.455C637.237 343.848 637.972 344.932 638.926 345.705C639.896 346.462 641.055 346.841 642.403 346.841C643.767 346.841 644.926 346.462 645.881 345.705C646.835 344.932 647.555 343.848 648.04 342.455C648.54 341.061 648.79 339.424 648.79 337.545C648.79 335.667 648.54 334.038 648.04 332.659C647.555 331.28 646.835 330.212 645.881 329.455C644.941 328.697 643.782 328.318 642.403 328.318C641.04 328.318 639.881 328.689 638.926 329.432C637.972 330.174 637.237 331.235 636.722 332.614C636.222 333.992 635.972 335.636 635.972 337.545Z" fill="#E6613F"/>
</svg>
