<svg width="1024" height="662" viewBox="0 0 1024 662" fill="none" xmlns="http://www.w3.org/2000/svg">
<rect width="1024" height="662" fill="#1E1E1E"/>
<g clip-path="url(#clip0_0_1)">
<path d="M1024 0H0V662H1024V0Z" fill="#1E1E1E"/>
<path d="M1024 0H0V662H1024V0Z" fill="#131313"/>
<path d="M302.636 378.909C297.667 378.909 293.091 377.606 288.909 375C284.758 372.394 281.424 368.439 278.909 363.136C276.424 357.833 275.182 351.152 275.182 343.091C275.182 334.667 276.485 327.818 279.091 322.545C281.727 317.273 285.121 313.409 289.273 310.955C293.455 308.5 297.848 307.273 302.455 307.273C305.909 307.273 308.939 307.879 311.545 309.091C314.152 310.273 316.333 311.864 318.091 313.864C319.848 315.833 321.182 318 322.091 320.364H322.455V284.909H347.545V378H322.636V366.545H322.091C321.121 368.909 319.727 371.03 317.909 372.909C316.121 374.758 313.939 376.227 311.364 377.318C308.818 378.379 305.909 378.909 302.636 378.909ZM311.909 359.636C314.212 359.636 316.182 358.97 317.818 357.636C319.485 356.273 320.758 354.364 321.636 351.909C322.545 349.424 323 346.485 323 343.091C323 339.636 322.545 336.682 321.636 334.227C320.758 331.742 319.485 329.848 317.818 328.545C316.182 327.212 314.212 326.545 311.909 326.545C309.606 326.545 307.636 327.212 306 328.545C304.394 329.848 303.152 331.742 302.273 334.227C301.424 336.682 301 339.636 301 343.091C301 346.545 301.424 349.515 302.273 352C303.152 354.455 304.394 356.348 306 357.682C307.636 358.985 309.606 359.636 311.909 359.636ZM405.136 347.455V308.182H430.227V378H406.409V364.727H405.682C404.167 369.182 401.515 372.667 397.727 375.182C393.939 377.667 389.439 378.909 384.227 378.909C379.348 378.909 375.076 377.788 371.409 375.545C367.773 373.303 364.939 370.212 362.909 366.273C360.909 362.333 359.894 357.818 359.864 352.727V308.182H384.955V347.455C384.985 350.909 385.864 353.621 387.591 355.591C389.348 357.561 391.803 358.545 394.955 358.545C397.045 358.545 398.848 358.106 400.364 357.227C401.909 356.318 403.091 355.045 403.909 353.409C404.758 351.742 405.167 349.758 405.136 347.455ZM442.989 378V308.182H467.352V321.455H468.08C469.352 316.545 471.367 312.955 474.125 310.682C476.913 308.409 480.17 307.273 483.898 307.273C484.989 307.273 486.064 307.364 487.125 307.545C488.216 307.697 489.261 307.924 490.261 308.227V329.636C489.019 329.212 487.489 328.894 485.67 328.682C483.852 328.47 482.292 328.364 480.989 328.364C478.534 328.364 476.322 328.924 474.352 330.045C472.413 331.136 470.883 332.682 469.761 334.682C468.64 336.652 468.08 338.97 468.08 341.636V378H442.989ZM543 308.182V326.364H497V308.182H543ZM505.909 291.455H531V355.545C531 356.515 531.167 357.333 531.5 358C531.833 358.636 532.348 359.121 533.045 359.455C533.742 359.758 534.636 359.909 535.727 359.909C536.485 359.909 537.364 359.818 538.364 359.636C539.394 359.455 540.152 359.303 540.636 359.182L544.273 376.818C543.152 377.152 541.545 377.561 539.455 378.045C537.394 378.53 534.939 378.848 532.091 379C526.333 379.303 521.5 378.712 517.591 377.227C513.682 375.712 510.742 373.333 508.773 370.091C506.803 366.848 505.848 362.788 505.909 357.909V291.455ZM585.943 379.273C578.489 379.273 572.064 377.848 566.67 375C561.307 372.121 557.17 368 554.261 362.636C551.383 357.242 549.943 350.788 549.943 343.273C549.943 336.061 551.398 329.758 554.307 324.364C557.216 318.97 561.322 314.773 566.625 311.773C571.928 308.773 578.186 307.273 585.398 307.273C590.67 307.273 595.443 308.091 599.716 309.727C603.989 311.364 607.64 313.742 610.67 316.864C613.701 319.955 616.034 323.712 617.67 328.136C619.307 332.561 620.125 337.545 620.125 343.091V348.909H557.761V335.091H597.034C597.004 333.091 596.489 331.333 595.489 329.818C594.519 328.273 593.201 327.076 591.534 326.227C589.898 325.348 588.034 324.909 585.943 324.909C583.913 324.909 582.049 325.348 580.352 326.227C578.655 327.076 577.292 328.258 576.261 329.773C575.261 331.288 574.731 333.061 574.67 335.091V350C574.67 352.242 575.14 354.242 576.08 356C577.019 357.758 578.367 359.136 580.125 360.136C581.883 361.136 584.004 361.636 586.489 361.636C588.216 361.636 589.792 361.394 591.216 360.909C592.67 360.424 593.913 359.727 594.943 358.818C595.973 357.879 596.731 356.758 597.216 355.455H620.125C619.337 360.303 617.473 364.515 614.534 368.091C611.595 371.636 607.701 374.394 602.852 376.364C598.034 378.303 592.398 379.273 585.943 379.273ZM664 379.273C656.424 379.273 649.939 377.773 644.545 374.773C639.152 371.742 635.015 367.53 632.136 362.136C629.258 356.712 627.818 350.424 627.818 343.273C627.818 336.121 629.258 329.848 632.136 324.455C635.015 319.03 639.152 314.818 644.545 311.818C649.939 308.788 656.424 307.273 664 307.273C670.848 307.273 676.773 308.515 681.773 311C686.803 313.455 690.697 316.939 693.455 321.455C696.212 325.939 697.606 331.212 697.636 337.273H674.364C674.03 333.606 672.97 330.818 671.182 328.909C669.424 326.97 667.152 326 664.364 326C662.182 326 660.273 326.636 658.636 327.909C657 329.152 655.727 331.045 654.818 333.591C653.909 336.106 653.455 339.273 653.455 343.091C653.455 346.909 653.909 350.091 654.818 352.636C655.727 355.152 657 357.045 658.636 358.318C660.273 359.561 662.182 360.182 664.364 360.182C666.212 360.182 667.848 359.758 669.273 358.909C670.697 358.03 671.848 356.758 672.727 355.091C673.636 353.394 674.182 351.333 674.364 348.909H697.636C697.545 355.061 696.136 360.424 693.409 365C690.682 369.545 686.818 373.061 681.818 375.545C676.848 378.03 670.909 379.273 664 379.273ZM749.625 308.182V326.364H703.625V308.182H749.625ZM712.534 291.455H737.625V355.545C737.625 356.515 737.792 357.333 738.125 358C738.458 358.636 738.973 359.121 739.67 359.455C740.367 359.758 741.261 359.909 742.352 359.909C743.11 359.909 743.989 359.818 744.989 359.636C746.019 359.455 746.777 359.303 747.261 359.182L750.898 376.818C749.777 377.152 748.17 377.561 746.08 378.045C744.019 378.53 741.564 378.848 738.716 379C732.958 379.303 728.125 378.712 724.216 377.227C720.307 375.712 717.367 373.333 715.398 370.091C713.428 366.848 712.473 362.788 712.534 357.909V291.455Z" fill="white"/>
</g>
<defs>
<clipPath id="clip0_0_1">
<rect width="1024" height="662" fill="white"/>
</clipPath>
</defs>
</svg>
