<svg width="1024" height="662" viewBox="0 0 1024 662" fill="none" xmlns="http://www.w3.org/2000/svg">
<rect width="1024" height="662" fill="#1E1E1E"/>
<g clip-path="url(#clip0_0_1)">
<path d="M1024 0H0V662H1024V0Z" fill="#1E1E1E"/>
<path d="M1024 0H0V662H1024V0Z" fill="#131313"/>
<path d="M389.537 359.533C386.625 359.533 383.944 358.769 381.494 357.242C379.061 355.715 377.108 353.398 375.634 350.291C374.178 347.184 373.45 343.268 373.45 338.545C373.45 333.609 374.214 329.597 375.741 326.507C377.286 323.418 379.274 321.154 381.707 319.716C384.157 318.277 386.732 317.558 389.43 317.558C391.455 317.558 393.23 317.913 394.757 318.624C396.284 319.316 397.563 320.248 398.592 321.42C399.622 322.574 400.403 323.844 400.936 325.229H401.149V304.455H415.851V359H401.256V352.288H400.936C400.368 353.673 399.551 354.916 398.486 356.017C397.438 357.1 396.16 357.961 394.651 358.6C393.159 359.222 391.455 359.533 389.537 359.533ZM394.97 348.24C396.32 348.24 397.474 347.849 398.433 347.068C399.409 346.269 400.155 345.151 400.67 343.712C401.202 342.256 401.469 340.534 401.469 338.545C401.469 336.521 401.202 334.79 400.67 333.352C400.155 331.896 399.409 330.786 398.433 330.023C397.474 329.241 396.32 328.851 394.97 328.851C393.621 328.851 392.467 329.241 391.508 330.023C390.567 330.786 389.839 331.896 389.324 333.352C388.827 334.79 388.578 336.521 388.578 338.545C388.578 340.57 388.827 342.31 389.324 343.766C389.839 345.204 390.567 346.314 391.508 347.095C392.467 347.858 393.621 348.24 394.97 348.24ZM449.596 341.102V318.091H464.297V359H450.341V351.223H449.915C449.027 353.833 447.474 355.875 445.254 357.349C443.035 358.805 440.398 359.533 437.344 359.533C434.485 359.533 431.982 358.876 429.833 357.562C427.703 356.248 426.043 354.437 424.853 352.129C423.681 349.82 423.086 347.175 423.069 344.192V318.091H437.77V341.102C437.788 343.126 438.303 344.716 439.315 345.87C440.345 347.024 441.783 347.601 443.63 347.601C444.855 347.601 445.911 347.343 446.799 346.828C447.705 346.296 448.397 345.55 448.876 344.591C449.374 343.615 449.613 342.452 449.596 341.102ZM471.775 359V318.091H486.05V325.868H486.476C487.222 322.991 488.403 320.887 490.019 319.556C491.652 318.224 493.561 317.558 495.745 317.558C496.384 317.558 497.014 317.612 497.636 317.718C498.275 317.807 498.888 317.94 499.473 318.118V330.662C498.745 330.413 497.849 330.227 496.783 330.103C495.718 329.978 494.804 329.916 494.04 329.916C492.602 329.916 491.306 330.245 490.152 330.902C489.015 331.541 488.119 332.446 487.462 333.618C486.805 334.772 486.476 336.131 486.476 337.693V359H471.775ZM530.375 318.091V328.744H503.422V318.091H530.375ZM508.642 308.29H523.344V345.843C523.344 346.411 523.441 346.891 523.637 347.281C523.832 347.654 524.134 347.938 524.542 348.134C524.951 348.311 525.474 348.4 526.114 348.4C526.558 348.4 527.072 348.347 527.658 348.24C528.262 348.134 528.706 348.045 528.99 347.974L531.121 358.308C530.464 358.503 529.523 358.743 528.298 359.027C527.09 359.311 525.652 359.497 523.983 359.586C520.609 359.763 517.777 359.417 515.487 358.547C513.196 357.659 511.474 356.266 510.32 354.366C509.166 352.466 508.607 350.087 508.642 347.228V308.29ZM555.537 359.746C551.169 359.746 547.405 358.911 544.244 357.242C541.102 355.555 538.678 353.141 536.973 349.998C535.287 346.837 534.443 343.055 534.443 338.652C534.443 334.426 535.296 330.733 537 327.572C538.705 324.412 541.111 321.953 544.218 320.195C547.325 318.437 550.992 317.558 555.217 317.558C558.307 317.558 561.103 318.038 563.607 318.996C566.111 319.955 568.25 321.349 570.026 323.178C571.801 324.989 573.168 327.191 574.127 329.783C575.086 332.375 575.565 335.296 575.565 338.545V341.955H539.024V333.858H562.036C562.018 332.686 561.716 331.656 561.13 330.768C560.562 329.863 559.79 329.162 558.813 328.664C557.854 328.15 556.762 327.892 555.537 327.892C554.347 327.892 553.255 328.15 552.261 328.664C551.267 329.162 550.468 329.854 549.864 330.742C549.278 331.63 548.967 332.668 548.932 333.858V342.594C548.932 343.908 549.207 345.08 549.758 346.109C550.308 347.139 551.098 347.947 552.128 348.533C553.158 349.119 554.401 349.412 555.857 349.412C556.869 349.412 557.792 349.27 558.627 348.986C559.479 348.702 560.207 348.293 560.81 347.761C561.414 347.21 561.858 346.553 562.142 345.79H575.565C575.104 348.631 574.012 351.099 572.29 353.194C570.567 355.271 568.286 356.887 565.445 358.041C562.622 359.178 559.319 359.746 555.537 359.746ZM601.273 359.746C596.835 359.746 593.035 358.867 589.874 357.109C586.714 355.333 584.29 352.865 582.603 349.705C580.917 346.527 580.073 342.842 580.073 338.652C580.073 334.462 580.917 330.786 582.603 327.626C584.29 324.447 586.714 321.979 589.874 320.222C593.035 318.446 596.835 317.558 601.273 317.558C605.286 317.558 608.757 318.286 611.687 319.742C614.635 321.18 616.916 323.222 618.532 325.868C620.148 328.496 620.964 331.585 620.982 335.136H607.346C607.151 332.988 606.529 331.354 605.482 330.236C604.452 329.099 603.12 328.531 601.487 328.531C600.208 328.531 599.089 328.904 598.131 329.65C597.172 330.378 596.426 331.488 595.893 332.979C595.361 334.453 595.094 336.308 595.094 338.545C595.094 340.783 595.361 342.647 595.893 344.138C596.426 345.612 597.172 346.722 598.131 347.468C599.089 348.196 600.208 348.56 601.487 348.56C602.57 348.56 603.528 348.311 604.363 347.814C605.197 347.299 605.872 346.553 606.387 345.577C606.92 344.582 607.239 343.375 607.346 341.955H620.982C620.929 345.559 620.103 348.702 618.505 351.383C616.907 354.046 614.643 356.106 611.714 357.562C608.802 359.018 605.322 359.746 601.273 359.746ZM651.444 318.091V328.744H624.491V318.091H651.444ZM629.711 308.29H644.413V345.843C644.413 346.411 644.511 346.891 644.706 347.281C644.901 347.654 645.203 347.938 645.612 348.134C646.02 348.311 646.544 348.4 647.183 348.4C647.627 348.4 648.142 348.347 648.728 348.24C649.331 348.134 649.775 348.045 650.059 347.974L652.19 358.308C651.533 358.503 650.592 358.743 649.367 359.027C648.16 359.311 646.721 359.497 645.052 359.586C641.679 359.763 638.847 359.417 636.556 358.547C634.266 357.659 632.543 356.266 631.389 354.366C630.235 352.466 629.676 350.087 629.711 347.228V308.29Z" fill="white"/>
</g>
<defs>
<clipPath id="clip0_0_1">
<rect width="1024" height="662" fill="white"/>
</clipPath>
</defs>
</svg>
