<svg width="1024" height="662" viewBox="0 0 1024 662" fill="none" xmlns="http://www.w3.org/2000/svg">
<rect width="1024" height="662" fill="#1E1E1E"/>
<rect width="1024" height="662" fill="#475260"/>
<path d="M364.835 355V308.455H384.244C387.729 308.455 390.646 308.947 392.994 309.932C395.358 310.917 397.131 312.295 398.312 314.068C399.509 315.841 400.108 317.894 400.108 320.227C400.108 322 399.737 323.583 398.994 324.977C398.252 326.356 397.229 327.5 395.926 328.409C394.623 329.318 393.116 329.955 391.403 330.318V330.773C393.282 330.864 395.017 331.371 396.608 332.295C398.214 333.22 399.502 334.508 400.472 336.159C401.441 337.795 401.926 339.735 401.926 341.977C401.926 344.477 401.29 346.712 400.017 348.682C398.744 350.636 396.903 352.182 394.494 353.318C392.085 354.439 389.161 355 385.722 355H364.835ZM376.085 345.932H383.04C385.479 345.932 387.275 345.47 388.426 344.545C389.593 343.621 390.176 342.333 390.176 340.682C390.176 339.485 389.896 338.455 389.335 337.591C388.775 336.712 387.979 336.038 386.949 335.568C385.919 335.083 384.684 334.841 383.244 334.841H376.085V345.932ZM376.085 327.591H382.312C383.54 327.591 384.631 327.386 385.585 326.977C386.54 326.568 387.282 325.977 387.812 325.205C388.358 324.432 388.631 323.5 388.631 322.409C388.631 320.848 388.078 319.621 386.972 318.727C385.866 317.833 384.373 317.386 382.494 317.386H376.085V327.591ZM423.631 355.659C419.964 355.659 416.813 354.909 414.176 353.409C411.555 351.894 409.532 349.788 408.108 347.091C406.699 344.379 405.994 341.235 405.994 337.659C405.994 334.068 406.699 330.924 408.108 328.227C409.532 325.515 411.555 323.409 414.176 321.909C416.813 320.394 419.964 319.636 423.631 319.636C427.297 319.636 430.441 320.394 433.062 321.909C435.699 323.409 437.722 325.515 439.131 328.227C440.555 330.924 441.267 334.068 441.267 337.659C441.267 341.235 440.555 344.379 439.131 347.091C437.722 349.788 435.699 351.894 433.062 353.409C430.441 354.909 427.297 355.659 423.631 355.659ZM423.699 347.273C425.032 347.273 426.161 346.864 427.085 346.045C428.009 345.227 428.714 344.091 429.199 342.636C429.699 341.182 429.949 339.5 429.949 337.591C429.949 335.652 429.699 333.955 429.199 332.5C428.714 331.045 428.009 329.909 427.085 329.091C426.161 328.273 425.032 327.864 423.699 327.864C422.32 327.864 421.153 328.273 420.199 329.091C419.259 329.909 418.54 331.045 418.04 332.5C417.555 333.955 417.312 335.652 417.312 337.591C417.312 339.5 417.555 341.182 418.04 342.636C418.54 344.091 419.259 345.227 420.199 346.045C421.153 346.864 422.32 347.273 423.699 347.273ZM463.256 355.659C459.589 355.659 456.438 354.909 453.801 353.409C451.18 351.894 449.157 349.788 447.733 347.091C446.324 344.379 445.619 341.235 445.619 337.659C445.619 334.068 446.324 330.924 447.733 328.227C449.157 325.515 451.18 323.409 453.801 321.909C456.438 320.394 459.589 319.636 463.256 319.636C466.922 319.636 470.066 320.394 472.688 321.909C475.324 323.409 477.347 325.515 478.756 328.227C480.18 330.924 480.892 334.068 480.892 337.659C480.892 341.235 480.18 344.379 478.756 347.091C477.347 349.788 475.324 351.894 472.688 353.409C470.066 354.909 466.922 355.659 463.256 355.659ZM463.324 347.273C464.657 347.273 465.786 346.864 466.71 346.045C467.634 345.227 468.339 344.091 468.824 342.636C469.324 341.182 469.574 339.5 469.574 337.591C469.574 335.652 469.324 333.955 468.824 332.5C468.339 331.045 467.634 329.909 466.71 329.091C465.786 328.273 464.657 327.864 463.324 327.864C461.945 327.864 460.778 328.273 459.824 329.091C458.884 329.909 458.165 331.045 457.665 332.5C457.18 333.955 456.938 335.652 456.938 337.591C456.938 339.5 457.18 341.182 457.665 342.636C458.165 344.091 458.884 345.227 459.824 346.045C460.778 346.864 461.945 347.273 463.324 347.273ZM496.608 345.841L496.653 332.591H498.199L508.017 320.091H520.608L506.017 338H503.085L496.608 345.841ZM486.585 355V308.455H497.699V355H486.585ZM508.267 355L499.131 340.5L506.449 332.614L521.108 355H508.267ZM524.585 355V308.455H535.835V327.136H554.176V308.455H565.403V355H554.176V336.295H535.835V355H524.585ZM572.46 355V320.091H583.574V355H572.46ZM578.028 316.023C576.468 316.023 575.127 315.508 574.006 314.477C572.884 313.432 572.324 312.174 572.324 310.705C572.324 309.25 572.884 308.008 574.006 306.977C575.127 305.932 576.468 305.409 578.028 305.409C579.604 305.409 580.945 305.932 582.051 306.977C583.172 308.008 583.733 309.25 583.733 310.705C583.733 312.174 583.172 313.432 582.051 314.477C580.945 315.508 579.604 316.023 578.028 316.023ZM624.511 320.091L612.534 355H599.807L587.852 320.091H599.557L605.989 344.136H606.352L612.807 320.091H624.511ZM643.966 355.659C640.314 355.659 637.163 354.939 634.511 353.5C631.875 352.045 629.845 349.977 628.42 347.295C627.011 344.598 626.307 341.394 626.307 337.682C626.307 334.076 627.019 330.924 628.443 328.227C629.867 325.515 631.875 323.409 634.466 321.909C637.057 320.394 640.11 319.636 643.625 319.636C646.11 319.636 648.383 320.023 650.443 320.795C652.504 321.568 654.284 322.712 655.784 324.227C657.284 325.742 658.451 327.614 659.284 329.841C660.117 332.053 660.534 334.591 660.534 337.455V340.227H630.193V333.773H650.193C650.178 332.591 649.898 331.538 649.352 330.614C648.807 329.689 648.057 328.97 647.102 328.455C646.163 327.924 645.08 327.659 643.852 327.659C642.61 327.659 641.496 327.939 640.511 328.5C639.527 329.045 638.746 329.795 638.17 330.75C637.595 331.689 637.292 332.758 637.261 333.955V340.523C637.261 341.947 637.542 343.197 638.102 344.273C638.663 345.333 639.458 346.159 640.489 346.75C641.519 347.341 642.746 347.636 644.17 347.636C645.155 347.636 646.049 347.5 646.852 347.227C647.655 346.955 648.345 346.553 648.92 346.023C649.496 345.492 649.928 344.841 650.216 344.068L660.42 344.364C659.996 346.652 659.064 348.644 657.625 350.341C656.201 352.023 654.33 353.333 652.011 354.273C649.693 355.197 647.011 355.659 643.966 355.659Z" fill="white"/>
</svg>
