<svg width="129" height="23" viewBox="0 0 129 23" fill="none" xmlns="http://www.w3.org/2000/svg">
<path d="M0.60973 22V1.63636H8.76314C10.2612 1.63636 11.5108 1.85843 12.5117 2.30256C13.5127 2.74669 14.265 3.36316 14.7688 4.15199C15.2726 4.93419 15.5245 5.8357 15.5245 6.85653C15.5245 7.65199 15.3654 8.35133 15.0472 8.95455C14.729 9.55114 14.2915 10.0417 13.7347 10.4261C13.1845 10.804 12.5548 11.0724 11.8455 11.2315V11.4304C12.6211 11.4635 13.3469 11.6823 14.0231 12.0866C14.7058 12.491 15.2594 13.0578 15.6836 13.7869C16.1078 14.5095 16.32 15.3712 16.32 16.3722C16.32 17.4527 16.0515 18.4171 15.5146 19.2656C14.9843 20.1075 14.1987 20.7737 13.158 21.2642C12.1173 21.7547 10.8346 22 9.31001 22H0.60973ZM4.91513 18.4801H8.42507C9.62488 18.4801 10.4999 18.2514 11.0501 17.794C11.6003 17.33 11.8754 16.7135 11.8754 15.9446C11.8754 15.3812 11.7395 14.884 11.4677 14.4531C11.1959 14.0223 10.8081 13.6842 10.3043 13.4389C9.80717 13.1937 9.2139 13.071 8.5245 13.071H4.91513V18.4801ZM4.91513 10.1577H8.10689C8.69685 10.1577 9.22053 10.0549 9.67791 9.84943C10.1419 9.63731 10.5065 9.33902 10.7717 8.95455C11.0434 8.57008 11.1793 8.10938 11.1793 7.57244C11.1793 6.83665 10.9175 6.24337 10.3938 5.79261C9.87678 5.34186 9.14098 5.11648 8.18644 5.11648H4.91513V10.1577ZM25.9425 22.2983C24.398 22.2983 23.0623 21.9702 21.9354 21.3139C20.8151 20.651 19.95 19.7296 19.3402 18.5497C18.7304 17.3632 18.4254 15.9877 18.4254 14.4233C18.4254 12.8456 18.7304 11.4669 19.3402 10.2869C19.95 9.10038 20.8151 8.17898 21.9354 7.52273C23.0623 6.85985 24.398 6.52841 25.9425 6.52841C27.487 6.52841 28.8194 6.85985 29.9396 7.52273C31.0665 8.17898 31.9349 9.10038 32.5447 10.2869C33.1546 11.4669 33.4595 12.8456 33.4595 14.4233C33.4595 15.9877 33.1546 17.3632 32.5447 18.5497C31.9349 19.7296 31.0665 20.651 29.9396 21.3139C28.8194 21.9702 27.487 22.2983 25.9425 22.2983ZM25.9624 19.017C26.665 19.017 27.2517 18.8182 27.7223 18.4205C28.1929 18.0161 28.5476 17.4659 28.7862 16.7699C29.0315 16.0739 29.1541 15.2817 29.1541 14.3935C29.1541 13.5052 29.0315 12.7131 28.7862 12.017C28.5476 11.321 28.1929 10.7708 27.7223 10.3665C27.2517 9.96212 26.665 9.75994 25.9624 9.75994C25.2531 9.75994 24.6565 9.96212 24.1726 10.3665C23.6953 10.7708 23.334 11.321 23.0888 12.017C22.8501 12.7131 22.7308 13.5052 22.7308 14.3935C22.7308 15.2817 22.8501 16.0739 23.0888 16.7699C23.334 17.4659 23.6953 18.0161 24.1726 18.4205C24.6565 18.8182 25.2531 19.017 25.9624 19.017ZM43.1143 22.2983C41.5698 22.2983 40.2341 21.9702 39.1072 21.3139C37.987 20.651 37.1219 19.7296 36.5121 18.5497C35.9022 17.3632 35.5973 15.9877 35.5973 14.4233C35.5973 12.8456 35.9022 11.4669 36.5121 10.2869C37.1219 9.10038 37.987 8.17898 39.1072 7.52273C40.2341 6.85985 41.5698 6.52841 43.1143 6.52841C44.6589 6.52841 45.9912 6.85985 47.1115 7.52273C48.2384 8.17898 49.1068 9.10038 49.7166 10.2869C50.3265 11.4669 50.6314 12.8456 50.6314 14.4233C50.6314 15.9877 50.3265 17.3632 49.7166 18.5497C49.1068 19.7296 48.2384 20.651 47.1115 21.3139C45.9912 21.9702 44.6589 22.2983 43.1143 22.2983ZM43.1342 19.017C43.8369 19.017 44.4235 18.8182 44.8942 18.4205C45.3648 18.0161 45.7195 17.4659 45.9581 16.7699C46.2034 16.0739 46.326 15.2817 46.326 14.3935C46.326 13.5052 46.2034 12.7131 45.9581 12.017C45.7195 11.321 45.3648 10.7708 44.8942 10.3665C44.4235 9.96212 43.8369 9.75994 43.1342 9.75994C42.425 9.75994 41.8284 9.96212 41.3445 10.3665C40.8672 10.7708 40.5059 11.321 40.2607 12.017C40.022 12.7131 39.9027 13.5052 39.9027 14.3935C39.9027 15.2817 40.022 16.0739 40.2607 16.7699C40.5059 17.4659 40.8672 18.0161 41.3445 18.4205C41.8284 18.8182 42.425 19.017 43.1342 19.017ZM57.2237 17.6051L57.2337 12.5241H57.8501L62.7422 6.72727H67.6044L61.032 14.4034H60.0277L57.2237 17.6051ZM53.3857 22V1.63636H57.6214V22H53.3857ZM62.9311 22L58.4368 15.348L61.2607 12.3551L67.8928 22H62.9311ZM69.7621 22V1.63636H74.0675V10.0384H82.8075V1.63636H87.103V22H82.8075V13.5881H74.0675V22H69.7621ZM90.5732 22V6.72727H94.8089V22H90.5732ZM92.701 4.75852C92.0713 4.75852 91.531 4.54972 91.0803 4.1321C90.6361 3.70786 90.4141 3.20076 90.4141 2.61079C90.4141 2.02746 90.6361 1.52699 91.0803 1.10938C91.531 0.685132 92.0713 0.47301 92.701 0.47301C93.3307 0.47301 93.8677 0.685132 94.3118 1.10938C94.7625 1.52699 94.9879 2.02746 94.9879 2.61079C94.9879 3.20076 94.7625 3.70786 94.3118 4.1321C93.8677 4.54972 93.3307 4.75852 92.701 4.75852ZM112.441 6.72727L107.101 22H102.328L96.989 6.72727H101.463L104.635 17.6548H104.794L107.956 6.72727H112.441ZM121.076 22.2983C119.505 22.2983 118.153 21.9801 117.02 21.3438C115.893 20.7008 115.024 19.7926 114.414 18.6193C113.805 17.4394 113.5 16.044 113.5 14.4332C113.5 12.8622 113.805 11.4834 114.414 10.2969C115.024 9.11032 115.883 8.18561 116.99 7.52273C118.103 6.85985 119.409 6.52841 120.907 6.52841C121.915 6.52841 122.853 6.69081 123.721 7.01562C124.596 7.33381 125.359 7.81439 126.008 8.45739C126.664 9.10038 127.175 9.90909 127.539 10.8835C127.904 11.8513 128.086 12.9848 128.086 14.2841V15.4474H115.19V12.8224H124.099C124.099 12.2126 123.967 11.6723 123.701 11.2017C123.436 10.7311 123.068 10.3632 122.598 10.098C122.134 9.82623 121.593 9.69034 120.977 9.69034C120.334 9.69034 119.764 9.83949 119.267 10.1378C118.776 10.4295 118.392 10.8239 118.113 11.321C117.835 11.8116 117.692 12.3584 117.686 12.9616V15.4574C117.686 16.2131 117.825 16.866 118.103 17.4162C118.388 17.9664 118.789 18.3906 119.306 18.6889C119.824 18.9872 120.437 19.1364 121.146 19.1364C121.617 19.1364 122.047 19.0701 122.439 18.9375C122.83 18.8049 123.164 18.6061 123.443 18.3409C123.721 18.0758 123.933 17.7509 124.079 17.3665L127.997 17.625C127.798 18.5663 127.39 19.3883 126.774 20.0909C126.164 20.7869 125.375 21.3305 124.407 21.7216C123.446 22.1061 122.336 22.2983 121.076 22.2983Z" fill="white"/>
</svg>
