<svg width="1024" height="662" viewBox="0 0 1024 662" fill="none" xmlns="http://www.w3.org/2000/svg">
<rect width="1024" height="662" fill="#1E1E1E"/>
<g clip-path="url(#clip0_0_1)">
<path d="M1024 0H0V662H1024V0Z" fill="#1E1E1E"/>
<path d="M1024 0H0V662H1024V0Z" fill="#11151C"/>
<path d="M434.12 458.688V504H419.912V486.336H406.408V504H392.2V458.688H406.408V475.008H419.912V458.688H434.12ZM447.681 465.024C445.206 465.024 443.222 464.363 441.729 463.04C440.235 461.717 439.489 460.053 439.489 458.048C439.489 456 440.235 454.315 441.729 452.992C443.222 451.627 445.206 450.944 447.681 450.944C450.113 450.944 452.075 451.627 453.569 452.992C455.062 454.315 455.809 456 455.809 458.048C455.809 460.053 455.062 461.717 453.569 463.04C452.075 464.363 450.113 465.024 447.681 465.024ZM454.721 467.904V504H440.513V467.904H454.721ZM474.13 467.456C476.476 467.456 478.503 467.947 480.21 468.928C481.916 469.867 483.218 471.168 484.114 472.832V467.904H498.258V503.36C498.258 506.731 497.639 509.803 496.402 512.576C495.164 515.349 493.159 517.568 490.386 519.232C487.655 520.896 484.135 521.728 479.826 521.728C474.023 521.728 469.415 520.363 466.002 517.632C462.631 514.944 460.711 511.275 460.242 506.624H474.194C474.578 508.501 476.114 509.44 478.802 509.44C480.466 509.44 481.767 509.013 482.706 508.16C483.644 507.307 484.114 505.707 484.114 503.36V499.072C483.218 500.736 481.916 502.059 480.21 503.04C478.503 503.979 476.476 504.448 474.13 504.448C471.314 504.448 468.775 503.723 466.514 502.272C464.252 500.779 462.46 498.645 461.138 495.872C459.858 493.056 459.218 489.749 459.218 485.952C459.218 482.155 459.858 478.869 461.138 476.096C462.46 473.28 464.252 471.147 466.514 469.696C468.775 468.203 471.314 467.456 474.13 467.456ZM484.114 485.952C484.114 484.032 483.623 482.539 482.642 481.472C481.66 480.405 480.402 479.872 478.866 479.872C477.33 479.872 476.071 480.405 475.09 481.472C474.108 482.539 473.618 484.032 473.618 485.952C473.618 487.872 474.108 489.365 475.09 490.432C476.071 491.499 477.33 492.032 478.866 492.032C480.402 492.032 481.66 491.499 482.642 490.432C483.623 489.365 484.114 487.872 484.114 485.952ZM529.918 467.648C534.056 467.648 537.278 469.035 539.582 471.808C541.928 474.581 543.102 478.336 543.102 483.072V504H528.958V484.864C528.958 483.157 528.488 481.813 527.55 480.832C526.654 479.808 525.438 479.296 523.902 479.296C522.323 479.296 521.086 479.808 520.19 480.832C519.294 481.813 518.846 483.157 518.846 484.864V504H504.638V456.64H518.846V473.408C519.955 471.701 521.427 470.315 523.262 469.248C525.139 468.181 527.358 467.648 529.918 467.648ZM568.143 458.688C572.879 458.688 577.017 459.648 580.559 461.568C584.143 463.488 586.895 466.155 588.815 469.568C590.735 472.981 591.695 476.864 591.695 481.216C591.695 485.525 590.735 489.408 588.815 492.864C586.895 496.32 584.143 499.051 580.559 501.056C577.017 503.019 572.879 504 568.143 504H549.263V458.688H568.143ZM566.863 491.328C570.063 491.328 572.601 490.453 574.479 488.704C576.356 486.955 577.295 484.459 577.295 481.216C577.295 477.973 576.356 475.477 574.479 473.728C572.601 471.979 570.063 471.104 566.863 471.104H563.471V491.328H566.863ZM631.769 485.632C631.769 486.613 631.705 487.552 631.577 488.448H608.729C608.942 491.563 610.244 493.12 612.633 493.12C614.169 493.12 615.278 492.416 615.961 491.008H631.001C630.489 493.568 629.401 495.872 627.737 497.92C626.116 499.925 624.046 501.525 621.529 502.72C619.054 503.872 616.324 504.448 613.337 504.448C609.753 504.448 606.553 503.701 603.737 502.208C600.964 500.715 598.788 498.581 597.209 495.808C595.673 492.992 594.905 489.707 594.905 485.952C594.905 482.197 595.673 478.933 597.209 476.16C598.788 473.344 600.964 471.189 603.737 469.696C606.553 468.203 609.753 467.456 613.337 467.456C616.921 467.456 620.1 468.203 622.873 469.696C625.689 471.147 627.865 473.237 629.401 475.968C630.98 478.699 631.769 481.92 631.769 485.632ZM617.369 482.24C617.369 481.045 616.985 480.149 616.217 479.552C615.449 478.912 614.489 478.592 613.337 478.592C610.82 478.592 609.348 479.808 608.921 482.24H617.369ZM657.063 465.344C656.295 465.259 655.761 465.216 655.463 465.216C654.396 465.216 653.585 465.429 653.031 465.856C652.476 466.24 652.092 466.923 651.878 467.904H657.063V479.744H651.751V504H637.543V479.744H633.703V467.904H637.543C637.628 463.211 639.1 459.584 641.959 457.024C644.86 454.421 648.913 453.12 654.119 453.12C654.716 453.12 655.697 453.163 657.063 453.248V465.344Z" fill="white"/>
<path d="M669.571 240.355C671.657 241.57 672.7 243.655 672.178 245.913C666.441 270.055 629.76 402.579 516.238 402.579C402.542 402.579 365.339 269.708 359.602 245.739C359.08 243.481 360.123 241.397 362.035 240.181L512.239 156.116C514.673 154.727 517.628 154.727 520.236 156.116L669.571 240.355Z" fill="url(#paint0_linear_0_1)"/>
<path d="M621.589 248.518L601.249 237.402L596.381 234.623L564.567 217.254L554.832 212.043L526.495 196.585C525.104 195.89 523.365 196.759 523.365 198.496L523.713 372.183C523.713 373.573 525.104 374.615 526.495 374.094C536.404 370.62 545.792 366.278 554.658 361.241C557.961 359.331 561.264 357.42 564.393 355.336C576.041 347.693 586.646 338.662 596.207 328.588C597.946 326.677 599.684 324.94 601.249 323.03C609.072 313.824 616.026 303.924 621.937 293.156C622.632 291.766 623.501 290.377 624.197 288.813C628.543 280.303 632.194 271.445 635.149 262.239C635.497 260.85 636.018 259.634 636.366 258.244C636.714 257.376 636.192 256.334 635.323 255.813L621.589 248.518ZM554.832 314.345V254.423C554.832 252.86 556.57 251.818 557.961 252.513L575.867 262.239L595.338 272.834C596.381 273.355 596.729 274.745 596.207 275.613C587.341 291.766 574.65 305.14 558.135 315.735C556.57 317.124 554.832 316.082 554.832 314.345Z" fill="url(#paint1_linear_0_1)"/>
<path d="M508.936 198.496L508.762 372.183C508.762 373.573 507.372 374.615 505.981 374.094C492.768 369.578 480.251 363.499 468.777 356.03C468.256 355.683 467.734 354.988 467.734 354.294V300.971C467.734 299.929 467.039 299.061 465.996 298.887C456.782 297.15 447.568 295.587 438.354 293.85C437.137 293.677 435.92 294.545 435.92 295.935V323.725C435.92 325.635 433.487 326.504 432.27 325.114C422.534 313.998 414.016 301.493 407.236 288.119C404.802 283.429 402.542 278.566 400.629 273.529C399.239 269.881 397.848 266.234 396.631 262.413C396.283 261.197 395.936 259.981 395.414 258.765C395.066 257.897 395.588 256.855 396.457 256.334L432.965 236.533C434.356 235.839 436.094 236.707 436.094 238.444V264.844C436.094 266.234 437.311 267.102 438.528 266.929C446.177 265.539 454 264.15 461.997 262.76C463.388 262.587 464.779 262.239 466.17 262.065C467.213 261.892 467.908 261.023 467.908 259.981V218.991C467.908 218.296 468.256 217.601 468.951 217.08L475.036 213.78L505.807 196.933C507.198 195.89 508.936 196.933 508.936 198.496Z" fill="url(#paint2_linear_0_1)"/>
</g>
<defs>
<linearGradient id="paint0_linear_0_1" x1="608.736" y1="364.609" x2="423.155" y2="178.857" gradientUnits="userSpaceOnUse">
<stop stop-color="#346EB6"/>
<stop offset="0.4795" stop-color="#437EBF"/>
<stop offset="1" stop-color="#5594CC"/>
</linearGradient>
<linearGradient id="paint1_linear_0_1" x1="505.082" y1="362.679" x2="583.779" y2="226.247" gradientUnits="userSpaceOnUse">
<stop stop-color="white"/>
<stop offset="1" stop-color="#E5EFFA"/>
</linearGradient>
<linearGradient id="paint2_linear_0_1" x1="438.382" y1="338.889" x2="517.244" y2="202.169" gradientUnits="userSpaceOnUse">
<stop stop-color="white"/>
<stop offset="1" stop-color="#E5EFFA"/>
</linearGradient>
<clipPath id="clip0_0_1">
<rect width="1024" height="662" fill="white"/>
</clipPath>
</defs>
</svg>
