<svg width="105" height="27" viewBox="0 0 105 27" fill="none" xmlns="http://www.w3.org/2000/svg">
<path d="M13.4739 10.0824L9.59606 10.321C9.52977 9.98958 9.38725 9.69129 9.1685 9.42614C8.94975 9.15436 8.6614 8.93892 8.30344 8.77983C7.95212 8.61411 7.53119 8.53125 7.04066 8.53125C6.38441 8.53125 5.83091 8.67045 5.38015 8.94886C4.92939 9.22064 4.70401 9.58523 4.70401 10.0426C4.70401 10.4072 4.84985 10.7154 5.14151 10.9673C5.43318 11.2192 5.93365 11.4214 6.64293 11.5739L9.40714 12.1307C10.892 12.4356 11.999 12.9261 12.7282 13.6023C13.4573 14.2784 13.8219 15.1667 13.8219 16.267C13.8219 17.268 13.5269 18.1463 12.937 18.902C12.3536 19.6577 11.5516 20.2476 10.5307 20.6719C9.51651 21.0895 8.34653 21.2983 7.02077 21.2983C4.99899 21.2983 3.3882 20.8774 2.18839 20.0355C0.995206 19.187 0.295869 18.0336 0.0903765 16.5753L4.25657 16.3565C4.38252 16.973 4.68744 17.4437 5.17134 17.7685C5.65524 18.0866 6.27504 18.2457 7.03072 18.2457C7.77314 18.2457 8.36973 18.1032 8.82049 17.8182C9.27788 17.5265 9.50988 17.152 9.51651 16.6946C9.50988 16.3101 9.34748 15.9953 9.0293 15.75C8.71112 15.4981 8.22059 15.3059 7.55771 15.1733L4.91282 14.6463C3.42134 14.348 2.31102 13.831 1.58185 13.0952C0.859316 12.3594 0.498047 11.4214 0.498047 10.2812C0.498047 9.30019 0.763198 8.45502 1.2935 7.74574C1.83043 7.03646 2.5828 6.48958 3.5506 6.10511C4.52504 5.72064 5.66519 5.52841 6.97106 5.52841C8.90004 5.52841 10.418 5.93608 11.525 6.75142C12.6387 7.56676 13.2883 8.67708 13.4739 10.0824ZM20.725 12.1705V21H16.4892V0.636363H20.6056V8.42188H20.7846C21.1293 7.52036 21.6861 6.81439 22.4551 6.30398C23.224 5.78693 24.1885 5.52841 25.3485 5.52841C26.4092 5.52841 27.3339 5.76042 28.1227 6.22443C28.9181 6.68182 29.5346 7.34138 29.9721 8.20312C30.4163 9.05824 30.635 10.0824 30.6284 11.2756V21H26.3926V12.0312C26.3992 11.09 26.1606 10.3575 25.6767 9.83381C25.1994 9.31013 24.5299 9.0483 23.6681 9.0483C23.0914 9.0483 22.581 9.17093 22.1369 9.41619C21.6994 9.66146 21.3547 10.0194 21.1028 10.4901C20.8575 10.9541 20.7316 11.5142 20.725 12.1705ZM40.8624 21.2983C39.3179 21.2983 37.9822 20.9702 36.8553 20.3139C35.735 19.651 34.87 18.7296 34.2601 17.5497C33.6503 16.3632 33.3453 14.9877 33.3453 13.4233C33.3453 11.8456 33.6503 10.4669 34.2601 9.28693C34.87 8.10038 35.735 7.17898 36.8553 6.52273C37.9822 5.85985 39.3179 5.52841 40.8624 5.52841C42.4069 5.52841 43.7393 5.85985 44.8596 6.52273C45.9864 7.17898 46.8548 8.10038 47.4647 9.28693C48.0745 10.4669 48.3794 11.8456 48.3794 13.4233C48.3794 14.9877 48.0745 16.3632 47.4647 17.5497C46.8548 18.7296 45.9864 19.651 44.8596 20.3139C43.7393 20.9702 42.4069 21.2983 40.8624 21.2983ZM40.8823 18.017C41.5849 18.017 42.1716 17.8182 42.6422 17.4205C43.1129 17.0161 43.4675 16.4659 43.7061 15.7699C43.9514 15.0739 44.074 14.2817 44.074 13.3935C44.074 12.5052 43.9514 11.7131 43.7061 11.017C43.4675 10.321 43.1129 9.77083 42.6422 9.36648C42.1716 8.96212 41.5849 8.75994 40.8823 8.75994C40.173 8.75994 39.5764 8.96212 39.0925 9.36648C38.6152 9.77083 38.254 10.321 38.0087 11.017C37.7701 11.7131 37.6507 12.5052 37.6507 13.3935C37.6507 14.2817 37.7701 15.0739 38.0087 15.7699C38.254 16.4659 38.6152 17.0161 39.0925 17.4205C39.5764 17.8182 40.173 18.017 40.8823 18.017ZM51.1337 21V5.72727H55.2402V8.39205H55.3993C55.6777 7.44413 56.1451 6.72822 56.8013 6.24432C57.4576 5.75379 58.2132 5.50852 59.0684 5.50852C59.2805 5.50852 59.5092 5.52178 59.7544 5.54829C59.9997 5.57481 60.2151 5.61127 60.4007 5.65767V9.41619C60.2019 9.35653 59.9268 9.3035 59.5755 9.2571C59.2241 9.2107 58.9026 9.1875 58.611 9.1875C57.9879 9.1875 57.431 9.32339 56.9405 9.59517C56.4566 9.86032 56.0721 10.2315 55.7871 10.7088C55.5087 11.1861 55.3695 11.7363 55.3695 12.3594V21H51.1337ZM71.4799 5.72727V8.90909H62.2825V5.72727H71.4799ZM64.3706 2.06818H68.6064V16.3068C68.6064 16.6979 68.666 17.0028 68.7853 17.2216C68.9047 17.4337 69.0704 17.5829 69.2825 17.669C69.5012 17.7552 69.7531 17.7983 70.0382 17.7983C70.237 17.7983 70.4359 17.7817 70.6348 17.7486C70.8336 17.7088 70.9861 17.679 71.0922 17.6591L71.7583 20.8111C71.5462 20.8774 71.2479 20.9536 70.8635 21.0398C70.479 21.1326 70.0117 21.1889 69.4615 21.2088C68.4406 21.2486 67.5458 21.1127 66.7768 20.8011C66.0145 20.4896 65.4212 20.0057 64.997 19.3494C64.5727 18.6932 64.3639 17.8646 64.3706 16.8636V2.06818ZM76.715 21.2585C76.0588 21.2585 75.4953 21.0265 75.0247 20.5625C74.5607 20.0919 74.3287 19.5284 74.3287 18.8722C74.3287 18.2225 74.5607 17.6657 75.0247 17.2017C75.4953 16.7377 76.0588 16.5057 76.715 16.5057C77.3514 16.5057 77.9082 16.7377 78.3855 17.2017C78.8627 17.6657 79.1014 18.2225 79.1014 18.8722C79.1014 19.3097 78.9887 19.7107 78.7633 20.0753C78.5446 20.4332 78.2562 20.7216 77.8983 20.9403C77.5403 21.1525 77.1459 21.2585 76.715 21.2585ZM86.8148 0.636363V21H82.579V0.636363H86.8148ZM92.823 26.7273C92.286 26.7273 91.7823 26.6842 91.3116 26.598C90.8476 26.5185 90.4631 26.4157 90.1582 26.2898L91.1127 23.1278C91.6099 23.2803 92.0574 23.3632 92.4551 23.3764C92.8594 23.3897 93.2074 23.2969 93.4991 23.098C93.7974 22.8991 94.0394 22.5611 94.225 22.0838L94.4735 21.4375L88.9949 5.72727H93.4494L96.6113 16.9432H96.7704L99.9622 5.72727H104.447L98.5105 22.6506C98.2254 23.4725 97.8377 24.1884 97.3471 24.7983C96.8632 25.4148 96.2501 25.8887 95.5076 26.2202C94.7652 26.5582 93.8703 26.7273 92.823 26.7273Z" fill="white"/>
</svg>
