<svg width="1024" height="662" viewBox="0 0 1024 662" fill="none" xmlns="http://www.w3.org/2000/svg">
<rect width="1024" height="662" fill="#1E1E1E"/>
<rect x="0.5" y="0.5" width="1023" height="661" fill="#312E81" stroke="black"/>
<path d="M425.818 329.318L418.318 330.136C418.106 329.379 417.735 328.667 417.205 328C416.689 327.333 415.992 326.795 415.114 326.386C414.235 325.977 413.159 325.773 411.886 325.773C410.174 325.773 408.735 326.144 407.568 326.886C406.417 327.629 405.848 328.591 405.864 329.773C405.848 330.788 406.22 331.614 406.977 332.25C407.75 332.886 409.023 333.409 410.795 333.818L416.75 335.091C420.053 335.803 422.508 336.932 424.114 338.477C425.735 340.023 426.553 342.045 426.568 344.545C426.553 346.742 425.909 348.682 424.636 350.364C423.379 352.03 421.629 353.333 419.386 354.273C417.144 355.212 414.568 355.682 411.659 355.682C407.386 355.682 403.947 354.788 401.341 353C398.735 351.197 397.182 348.689 396.682 345.477L404.705 344.705C405.068 346.28 405.841 347.47 407.023 348.273C408.205 349.076 409.742 349.477 411.636 349.477C413.591 349.477 415.159 349.076 416.341 348.273C417.538 347.47 418.136 346.477 418.136 345.295C418.136 344.295 417.75 343.47 416.977 342.818C416.22 342.167 415.038 341.667 413.432 341.318L407.477 340.068C404.129 339.371 401.652 338.197 400.045 336.545C398.439 334.879 397.644 332.773 397.659 330.227C397.644 328.076 398.227 326.212 399.409 324.636C400.606 323.045 402.265 321.818 404.386 320.955C406.523 320.076 408.985 319.636 411.773 319.636C415.864 319.636 419.083 320.508 421.432 322.25C423.795 323.992 425.258 326.348 425.818 329.318ZM441.58 334.545V355H433.352V308.455H441.398V326.023H441.807C442.625 324.053 443.89 322.5 445.602 321.364C447.33 320.212 449.527 319.636 452.193 319.636C454.617 319.636 456.731 320.144 458.534 321.159C460.337 322.174 461.731 323.659 462.716 325.614C463.716 327.568 464.216 329.955 464.216 332.773V355H455.989V334.045C455.989 331.697 455.383 329.871 454.17 328.568C452.973 327.25 451.292 326.591 449.125 326.591C447.67 326.591 446.367 326.909 445.216 327.545C444.08 328.167 443.186 329.068 442.534 330.25C441.898 331.432 441.58 332.864 441.58 334.545ZM487.83 355.682C484.42 355.682 481.466 354.932 478.966 353.432C476.466 351.932 474.527 349.833 473.148 347.136C471.784 344.439 471.102 341.288 471.102 337.682C471.102 334.076 471.784 330.917 473.148 328.205C474.527 325.492 476.466 323.386 478.966 321.886C481.466 320.386 484.42 319.636 487.83 319.636C491.239 319.636 494.193 320.386 496.693 321.886C499.193 323.386 501.125 325.492 502.489 328.205C503.867 330.917 504.557 334.076 504.557 337.682C504.557 341.288 503.867 344.439 502.489 347.136C501.125 349.833 499.193 351.932 496.693 353.432C494.193 354.932 491.239 355.682 487.83 355.682ZM487.875 349.091C489.723 349.091 491.269 348.583 492.511 347.568C493.754 346.538 494.678 345.159 495.284 343.432C495.905 341.705 496.216 339.78 496.216 337.659C496.216 335.523 495.905 333.591 495.284 331.864C494.678 330.121 493.754 328.735 492.511 327.705C491.269 326.674 489.723 326.159 487.875 326.159C485.981 326.159 484.405 326.674 483.148 327.705C481.905 328.735 480.973 330.121 480.352 331.864C479.746 333.591 479.443 335.523 479.443 337.659C479.443 339.78 479.746 341.705 480.352 343.432C480.973 345.159 481.905 346.538 483.148 347.568C484.405 348.583 485.981 349.091 487.875 349.091ZM511.54 355V320.091H519.517V325.909H519.881C520.517 323.894 521.608 322.341 523.153 321.25C524.714 320.144 526.494 319.591 528.494 319.591C528.949 319.591 529.456 319.614 530.017 319.659C530.593 319.689 531.07 319.742 531.449 319.818V327.386C531.1 327.265 530.547 327.159 529.79 327.068C529.047 326.962 528.328 326.909 527.631 326.909C526.131 326.909 524.782 327.235 523.585 327.886C522.403 328.523 521.472 329.409 520.79 330.545C520.108 331.682 519.767 332.992 519.767 334.477V355H511.54ZM556.222 320.091V326.455H536.153V320.091H556.222ZM541.108 311.727H549.335V344.5C549.335 345.606 549.502 346.455 549.835 347.045C550.184 347.621 550.638 348.015 551.199 348.227C551.759 348.439 552.381 348.545 553.062 348.545C553.578 348.545 554.047 348.508 554.472 348.432C554.911 348.356 555.244 348.288 555.472 348.227L556.858 354.659C556.419 354.811 555.79 354.977 554.972 355.159C554.169 355.341 553.184 355.447 552.017 355.477C549.956 355.538 548.1 355.227 546.449 354.545C544.797 353.848 543.487 352.773 542.517 351.318C541.563 349.864 541.093 348.045 541.108 345.864V311.727ZM568.17 355.5C566.792 355.5 565.61 355.015 564.625 354.045C563.64 353.076 563.155 351.894 563.17 350.5C563.155 349.136 563.64 347.97 564.625 347C565.61 346.03 566.792 345.545 568.17 345.545C569.504 345.545 570.663 346.03 571.648 347C572.648 347.97 573.155 349.136 573.17 350.5C573.155 351.424 572.913 352.265 572.443 353.023C571.989 353.78 571.383 354.386 570.625 354.841C569.883 355.28 569.064 355.5 568.17 355.5ZM589.892 308.455V355H581.665V308.455H589.892ZM603.466 368.091C602.345 368.091 601.307 368 600.352 367.818C599.413 367.652 598.663 367.455 598.102 367.227L600.011 360.818C601.208 361.167 602.277 361.333 603.216 361.318C604.155 361.303 604.981 361.008 605.693 360.432C606.42 359.871 607.034 358.932 607.534 357.614L608.239 355.727L595.58 320.091H604.307L612.352 346.455H612.716L620.784 320.091H629.534L615.557 359.227C614.905 361.076 614.042 362.659 612.966 363.977C611.89 365.311 610.572 366.326 609.011 367.023C607.466 367.735 605.617 368.091 603.466 368.091Z" fill="white"/>
</svg>
