<svg width="84" height="28" viewBox="0 0 84 28" fill="none" xmlns="http://www.w3.org/2000/svg">
<path d="M0.291371 22V1.63636H4.59677V18.4503H13.3269V22H0.291371ZM16.0985 22V6.72727H20.3343V22H16.0985ZM18.2264 4.75852C17.5967 4.75852 17.0564 4.54972 16.6056 4.1321C16.1615 3.70786 15.9395 3.20076 15.9395 2.61079C15.9395 2.02746 16.1615 1.52699 16.6056 1.10938C17.0564 0.685132 17.5967 0.47301 18.2264 0.47301C18.8561 0.47301 19.3931 0.685132 19.8372 1.10938C20.2879 1.52699 20.5133 2.02746 20.5133 2.61079C20.5133 3.20076 20.2879 3.70786 19.8372 4.1321C19.3931 4.54972 18.8561 4.75852 18.2264 4.75852ZM36.4348 11.0824L32.557 11.321C32.4907 10.9896 32.3482 10.6913 32.1294 10.4261C31.9107 10.1544 31.6223 9.93892 31.2644 9.77983C30.9131 9.61411 30.4921 9.53125 30.0016 9.53125C29.3453 9.53125 28.7918 9.67045 28.3411 9.94886C27.8903 10.2206 27.665 10.5852 27.665 11.0426C27.665 11.4072 27.8108 11.7154 28.1025 11.9673C28.3941 12.2192 28.8946 12.4214 29.6039 12.5739L32.3681 13.1307C33.8529 13.4356 34.9599 13.9261 35.6891 14.6023C36.4183 15.2784 36.7828 16.1667 36.7828 17.267C36.7828 18.268 36.4879 19.1463 35.8979 19.902C35.3146 20.6577 34.5125 21.2476 33.4917 21.6719C32.4775 22.0895 31.3075 22.2983 29.9817 22.2983C27.9599 22.2983 26.3491 21.8774 25.1493 21.0355C23.9561 20.187 23.2568 19.0336 23.0513 17.5753L27.2175 17.3565C27.3435 17.973 27.6484 18.4437 28.1323 18.7685C28.6162 19.0866 29.236 19.2457 29.9917 19.2457C30.7341 19.2457 31.3307 19.1032 31.7814 18.8182C32.2388 18.5265 32.4708 18.152 32.4775 17.6946C32.4708 17.3101 32.3084 16.9953 31.9902 16.75C31.6721 16.4981 31.1815 16.3059 30.5186 16.1733L27.8738 15.6463C26.3823 15.348 25.272 14.831 24.5428 14.0952C23.8203 13.3594 23.459 12.4214 23.459 11.2812C23.459 10.3002 23.7241 9.45502 24.2544 8.74574C24.7914 8.03646 25.5437 7.48958 26.5115 7.10511C27.486 6.72064 28.6261 6.52841 29.932 6.52841C31.861 6.52841 33.379 6.93608 34.486 7.75142C35.5996 8.56676 36.2492 9.67708 36.4348 11.0824ZM47.5737 6.72727V9.90909H38.3762V6.72727H47.5737ZM40.4643 3.06818H44.7001V17.3068C44.7001 17.6979 44.7598 18.0028 44.8791 18.2216C44.9984 18.4337 45.1641 18.5829 45.3762 18.669C45.595 18.7552 45.8469 18.7983 46.1319 18.7983C46.3308 18.7983 46.5297 18.7817 46.7285 18.7486C46.9274 18.7088 47.0798 18.679 47.1859 18.6591L47.8521 21.8111C47.64 21.8774 47.3417 21.9536 46.9572 22.0398C46.5727 22.1326 46.1054 22.1889 45.5552 22.2088C44.5344 22.2486 43.6395 22.1127 42.8706 21.8011C42.1083 21.4896 41.515 21.0057 41.0907 20.3494C40.6665 19.6932 40.4577 18.8646 40.4643 17.8636V3.06818ZM50.3329 22V6.72727H54.5687V22H50.3329ZM52.4608 4.75852C51.831 4.75852 51.2908 4.54972 50.84 4.1321C50.3959 3.70786 50.1738 3.20076 50.1738 2.61079C50.1738 2.02746 50.3959 1.52699 50.84 1.10938C51.2908 0.685132 51.831 0.47301 52.4608 0.47301C53.0905 0.47301 53.6274 0.685132 54.0716 1.10938C54.5223 1.52699 54.7477 2.02746 54.7477 2.61079C54.7477 3.20076 54.5223 3.70786 54.0716 4.1321C53.6274 4.54972 53.0905 4.75852 52.4608 4.75852ZM66.1749 6.72727V9.90909H56.7488V6.72727H66.1749ZM58.9064 22V5.62358C58.9064 4.51657 59.1219 3.59848 59.5527 2.86932C59.9902 2.14015 60.5868 1.59328 61.3425 1.22869C62.0982 0.864108 62.9566 0.681817 63.9178 0.681817C64.5674 0.681817 65.1607 0.731533 65.6976 0.830966C66.2412 0.930397 66.6455 1.01989 66.9107 1.09943L66.155 4.28125C65.9893 4.22822 65.7838 4.1785 65.5385 4.1321C65.2999 4.0857 65.0546 4.0625 64.8027 4.0625C64.1796 4.0625 63.7454 4.20833 63.5002 4.5C63.2549 4.78504 63.1323 5.18608 63.1323 5.70312V22H58.9064ZM71.3777 27.7273C70.8407 27.7273 70.3369 27.6842 69.8663 27.598C69.4023 27.5185 69.0178 27.4157 68.7129 27.2898L69.6674 24.1278C70.1646 24.2803 70.612 24.3632 71.0098 24.3764C71.4141 24.3897 71.7621 24.2969 72.0538 24.098C72.3521 23.8991 72.594 23.5611 72.7797 23.0838L73.0282 22.4375L67.5495 6.72727H72.0041L75.166 17.9432H75.3251L78.5169 6.72727H83.0012L77.0652 23.6506C76.7801 24.4725 76.3923 25.1884 75.9018 25.7983C75.4179 26.4148 74.8047 26.8887 74.0623 27.2202C73.3199 27.5582 72.425 27.7273 71.3777 27.7273Z" fill="white"/>
</svg>
