<svg width="1024" height="662" viewBox="0 0 1024 662" fill="none" xmlns="http://www.w3.org/2000/svg">
<rect width="1024" height="662" fill="#1E1E1E"/>
<rect width="1024" height="662" fill="#0F172A"/>
<path d="M416.866 355V308.455H428.116V345.864H447.48V355H416.866ZM453.304 355V320.091H464.418V355H453.304ZM458.872 316.023C457.312 316.023 455.971 315.508 454.849 314.477C453.728 313.432 453.168 312.174 453.168 310.705C453.168 309.25 453.728 308.008 454.849 306.977C455.971 305.932 457.312 305.409 458.872 305.409C460.448 305.409 461.789 305.932 462.895 306.977C464.016 308.008 464.577 309.25 464.577 310.705C464.577 312.174 464.016 313.432 462.895 314.477C461.789 315.508 460.448 316.023 458.872 316.023ZM501.969 330.75L491.764 331.023C491.658 330.295 491.37 329.652 490.901 329.091C490.431 328.515 489.817 328.068 489.06 327.75C488.317 327.417 487.454 327.25 486.469 327.25C485.181 327.25 484.082 327.508 483.173 328.023C482.279 328.538 481.84 329.235 481.855 330.114C481.84 330.795 482.113 331.386 482.673 331.886C483.249 332.386 484.272 332.788 485.741 333.091L492.469 334.364C495.954 335.03 498.545 336.136 500.241 337.682C501.954 339.227 502.817 341.273 502.832 343.818C502.817 346.212 502.105 348.295 500.696 350.068C499.302 351.841 497.393 353.22 494.969 354.205C492.545 355.174 489.772 355.659 486.651 355.659C481.666 355.659 477.734 354.636 474.855 352.591C471.991 350.53 470.355 347.773 469.946 344.318L480.923 344.045C481.166 345.318 481.795 346.288 482.81 346.955C483.825 347.621 485.12 347.955 486.696 347.955C488.12 347.955 489.279 347.689 490.173 347.159C491.067 346.629 491.522 345.924 491.537 345.045C491.522 344.258 491.173 343.629 490.491 343.159C489.81 342.674 488.741 342.295 487.287 342.023L481.196 340.864C477.696 340.227 475.09 339.053 473.378 337.341C471.666 335.614 470.817 333.417 470.832 330.75C470.817 328.417 471.438 326.424 472.696 324.773C473.954 323.106 475.741 321.833 478.06 320.955C480.378 320.076 483.113 319.636 486.264 319.636C490.991 319.636 494.719 320.629 497.446 322.614C500.173 324.583 501.681 327.295 501.969 330.75ZM528.009 320.091V328.273H505.986V320.091H528.009ZM510.599 311.727H521.713V344.023C521.713 344.705 521.819 345.258 522.031 345.682C522.259 346.091 522.584 346.386 523.009 346.568C523.433 346.735 523.94 346.818 524.531 346.818C524.955 346.818 525.402 346.78 525.872 346.705C526.357 346.614 526.721 346.538 526.963 346.477L528.645 354.5C528.115 354.652 527.365 354.841 526.395 355.068C525.44 355.295 524.296 355.439 522.963 355.5C520.357 355.621 518.122 355.318 516.259 354.591C514.41 353.848 512.993 352.697 512.009 351.136C511.039 349.576 510.569 347.614 510.599 345.25V311.727ZM533.679 355V320.091H544.793V355H533.679ZM539.247 316.023C537.687 316.023 536.346 315.508 535.224 314.477C534.103 313.432 533.543 312.174 533.543 310.705C533.543 309.25 534.103 308.008 535.224 306.977C536.346 305.932 537.687 305.409 539.247 305.409C540.823 305.409 542.164 305.932 543.27 306.977C544.391 308.008 544.952 309.25 544.952 310.705C544.952 312.174 544.391 313.432 543.27 314.477C542.164 315.508 540.823 316.023 539.247 316.023ZM571.707 320.091V328.273H549.253V320.091H571.707ZM553.935 355V318.318C553.935 315.621 554.442 313.386 555.457 311.614C556.473 309.826 557.882 308.492 559.685 307.614C561.488 306.72 563.571 306.273 565.935 306.273C567.48 306.273 568.935 306.394 570.298 306.636C571.677 306.864 572.7 307.068 573.366 307.25L571.594 315.386C571.185 315.25 570.685 315.136 570.094 315.045C569.518 314.955 568.973 314.909 568.457 314.909C567.154 314.909 566.26 315.197 565.776 315.773C565.291 316.348 565.048 317.136 565.048 318.136V355H553.935ZM583.849 368.091C582.516 368.091 581.259 367.985 580.077 367.773C578.895 367.576 577.88 367.311 577.031 366.977L579.486 358.909C580.577 359.273 581.562 359.485 582.44 359.545C583.334 359.606 584.099 359.462 584.736 359.114C585.387 358.78 585.887 358.182 586.236 357.318L586.668 356.273L574.259 320.091H585.895L592.327 345H592.69L599.213 320.091H610.918L597.759 358.341C597.122 360.25 596.221 361.932 595.054 363.386C593.902 364.856 592.41 366.008 590.577 366.841C588.759 367.674 586.516 368.091 583.849 368.091Z" fill="white"/>
</svg>
